{"title":"Laal Ishq Song - Ram leela (2013) Hindi ft. Ranveer &amp; Deepik","uid":9271946,"size":53231010,"categoryP":"video","categoryS":"music_videos","magnet":"?xt=urn:btih:f004848c19a61f03baf21d7a8d9e34b8dfd329eb&amp;dn=Laal+Ishq+Song+-+Ram+leela+%282013%29+Hindi+ft.+Ranveer+%26amp%3B+Deepik&amp;tr=udp%3A%2F%2Ftracker.openbittorrent.com%3A80&amp;tr=udp%3A%2F%2Fopen.demonii.com%3A1337&amp;tr=udp%3A%2F%2Ftracker.coppersurfer.tk%3A6969&amp;tr=udp%3A%2F%2Fexodus.desync.com%3A6969","seeders":1,"leechers":0,"uploader":"Palash995","files":1,"time":1385797769,"description":"[center][b][size=200][color=red]Without Any reason..Don't Dislike the torrent.....please check and give your feedback[/color][/size]\n\n\nCheck out the heart touching song 'Laal Ishq' from Goliyon Ki Raasleela Ram-leela featuring Ranveer Singh &amp; Deepika Padukone. The song is sung by Arijit Singh.\n\nMusic: Sanjay Leela Bhansali\nLyrics: Siddharth-Garima\n\nEros International &amp; Bhansali Productions presents 'Goliyon Ki Raasleela Ram-leela' a Sanjay Leela Bhansali film featuring Ranveer Singh &amp; Deepika Padukone. The film is produced by Kishore Lulla &amp; Sanjay Leela Bhansali.\n\nScreenshots:-\n\n\n\n\nMedia Info:-\n\nGeneral\nComplete name : Laal Ishq Song - Ram leela (2013) Hindi ft. Ranveer &amp; Deepika HD 1080p {GTRG} {DAKU RG} {GreatPalash} .mp4\nFormat : MPEG-4\nFormat profile : Base Media\nCodec ID : isom\nFile size : 50.8 MiB\nDuration : 2mn 24s\nOverall bit rate mode : Variable\nOverall bit rate : 2 938 Kbps\nWriting application : Lavf53.31.100\n\nVideo\nID : 1\nFormat : AVC\nFormat/Info : Advanced Video Codec\nFormat profile : &lt;a class=&quot;__cf_email__&quot; href=&quot;/cdn-cgi/l/email-protection&quot; data-cfemail=&quot;db93b2bcb39b97eff5ea&quot;&gt;[email&amp;#160;protected]&lt;/a&gt;&lt;script cf-hash='f9e31' type=&quot;text/javascript&quot;&gt;\n/* &lt;![CDATA[ */!function(){try{var t=&quot;currentScript&quot;in document?document.currentScript:function(){for(var t=document.getElementsByTagName(&quot;script&quot;),e=t.length;e--;)if(t[e].getAttribute(&quot;cf-hash&quot;))return t[e]}();if(t&amp;&amp;t.previousSibling){var e,r,n,i,c=t.previousSibling,a=c.getAttribute(&quot;data-cfemail&quot;);if(a){for(e=&quot;&quot;,r=parseInt(a.substr(0,2),16),n=2;a.length-n;n+=2)i=parseInt(a.substr(n,2),16)^r,e+=String.fromCharCode(i);e=document.createTextNode(e),c.parentNode.replaceChild(e,c)}}}catch(u){}}();/* ]]&gt; */&lt;/script&gt;\nFormat settings, CABAC : Yes\nFormat settings, ReFrames : 3 frames\nCodec ID : avc1\nCodec ID/Info : Advanced Video Coding\nDuration : 2mn 24s\nBit rate mode : Variable\nBit rate : 2 677 Kbps\nMaximum bit rate : 19.2 Mbps\nWidth : 1 920 pixels\nHeight : 1 080 pixels\nDisplay aspect ratio : 16:9\nFrame rate mode : Constant\nFrame rate : 25.000 fps\nStandard : PAL\nColor space : YUV\nChroma subsampling : 4:2:0\nBit depth : 8 bits\nScan type : Progressive\nBits/(Pixel*Frame) : 0.052\nStream size : 46.3 MiB (91%)\nColor primaries : BT.709\nTransfer characteristics : BT.709\nMatrix coefficients : BT.709\n\nAudio\nID : 2\nFormat : AAC\nFormat/Info : Advanced Audio Codec\nFormat profile : LC\nCodec ID : 40\nDuration : 2mn 24s\nBit rate mode : Constant\nBit rate : 254 Kbps\nChannel(s) : 2 channels\nChannel positions : Front: L R\nSampling rate : 44.1 KHz\nCompression mode : Lossy\nStream size : 4.38 MiB (9%)\n\n\n[IMG]http://imageshack.us/a/img89/4822/zka.gif[/IMG]\n\n[IMG]http://imageshack.us/a/img200/185/tj8.gif[/IMG]\n\n[IMG]http://imageshack.us/a/img593/9603/ua8.gif[/IMG]\n\n[IMG]http://imageshack.us/a/img707/5608/ysmp.png[/IMG][/b][/center]","torrent":{"xt":"urn:btih:f004848c19a61f03baf21d7a8d9e34b8dfd329eb","amp;dn":"Laal+Ishq+Song+-+Ram+leela+%282013%29+Hindi+ft.+Ranveer+%26amp%3B+Deepik","amp;tr":["udp%3A%2F%2Ftracker.openbittorrent.com%3A80","udp%3A%2F%2Fopen.demonii.com%3A1337","udp%3A%2F%2Ftracker.coppersurfer.tk%3A6969","udp%3A%2F%2Fexodus.desync.com%3A6969"],"infoHash":"f004848c19a61f03baf21d7a8d9e34b8dfd329eb","infoHashBuffer":{"type":"Buffer","data":[240,4,132,140,25,166,31,3,186,242,29,122,141,158,52,184,223,211,41,235]},"announce":[],"urlList":[]}}